<mxfile host="65bd71144e">
    <diagram id="Uf9dhhYw5B2gI2n26_DF" name="Medallion Architecture">
        <mxGraphModel dx="3310" dy="1460" grid="1" gridSize="10" guides="1" tooltips="1" connect="1" arrows="1" fold="1" page="1" pageScale="1" pageWidth="850" pageHeight="1100" math="0" shadow="0">
            <root>
                <mxCell id="0"/>
                <mxCell id="1" parent="0"/>
                <mxCell id="28" style="edgeStyle=orthogonalEdgeStyle;html=1;entryX=-0.031;entryY=0.617;entryDx=0;entryDy=0;entryPerimeter=0;" edge="1" parent="1" source="landing" target="15">
                    <mxGeometry relative="1" as="geometry">
                        <mxPoint x="120" y="500" as="targetPoint"/>
                        <Array as="points">
                            <mxPoint x="120" y="477"/>
                        </Array>
                    </mxGeometry>
                </mxCell>
                <mxCell id="landing" value="" style="rounded=1;whiteSpace=wrap;html=1;fillColor=#f8cecc;strokeColor=#b85450;fontStyle=1" parent="1" vertex="1">
                    <mxGeometry x="40" y="160" width="160" height="220" as="geometry"/>
                </mxCell>
                <mxCell id="bronze" value="" style="rounded=1;whiteSpace=wrap;html=1;fillColor=#d5e8d4;strokeColor=#82b366;fontStyle=1" parent="1" vertex="1">
                    <mxGeometry x="240" y="160" width="160" height="220" as="geometry"/>
                </mxCell>
                <mxCell id="silver" value="" style="rounded=1;whiteSpace=wrap;html=1;fillColor=#ffe6cc;strokeColor=#d79b00;fontStyle=1" parent="1" vertex="1">
                    <mxGeometry x="440" y="160" width="160" height="220" as="geometry"/>
                </mxCell>
                <mxCell id="gold" value="" style="rounded=1;whiteSpace=wrap;html=1;fillColor=#fff2cc;strokeColor=#d6b656;fontStyle=1" parent="1" vertex="1">
                    <mxGeometry x="640" y="160" width="160" height="220" as="geometry"/>
                </mxCell>
                <mxCell id="arrow3" value="" style="endArrow=classic;html=1;exitX=1;exitY=0.5;exitDx=0;exitDy=0;entryX=0;entryY=0.5;entryDx=0;entryDy=0;" parent="1" source="landing" target="bronze" edge="1">
                    <mxGeometry width="50" height="50" relative="1" as="geometry"/>
                </mxCell>
                <mxCell id="arrow4" value="" style="endArrow=classic;html=1;exitX=1;exitY=0.5;exitDx=0;exitDy=0;entryX=0;entryY=0.5;entryDx=0;entryDy=0;" parent="1" source="bronze" target="silver" edge="1">
                    <mxGeometry width="50" height="50" relative="1" as="geometry"/>
                </mxCell>
                <mxCell id="arrow5" value="" style="endArrow=classic;html=1;exitX=1;exitY=0.5;exitDx=0;exitDy=0;entryX=0;entryY=0.5;entryDx=0;entryDy=0;" parent="1" source="silver" target="gold" edge="1">
                    <mxGeometry width="50" height="50" relative="1" as="geometry"/>
                </mxCell>
                <mxCell id="landing_desc" value="• Raw CSV storage&#xa;• Initial data landing&#xa;• Source system data" style="text;html=1;strokeColor=none;fillColor=none;align=left;verticalAlign=top;whiteSpace=wrap;rounded=0;" parent="1" vertex="1">
                    <mxGeometry x="40" y="80" width="160" height="60" as="geometry"/>
                </mxCell>
                <mxCell id="bronze_desc" value="• Raw data ingestion&#xa;• Schema validation&#xa;• Timestamp tracking&#xa;• Parquet format" style="text;html=1;strokeColor=none;fillColor=none;align=left;verticalAlign=top;whiteSpace=wrap;rounded=0;" parent="1" vertex="1">
                    <mxGeometry x="240" y="70" width="160" height="80" as="geometry"/>
                </mxCell>
                <mxCell id="silver_desc" value="• Data cleaning&#xa;• Type casting&#xa;• Deduplication&#xa;• Partitioning&#xa;• Data quality checks" style="text;html=1;strokeColor=none;fillColor=none;align=left;verticalAlign=top;whiteSpace=wrap;rounded=0;" parent="1" vertex="1">
                    <mxGeometry x="440" y="70" width="160" height="100" as="geometry"/>
                </mxCell>
                <mxCell id="gold_desc" value="• Business metrics&#xa;• Customer analytics&#xa;• Offer performance&#xa;• Channel effectiveness&#xa;• Age analysis" style="text;html=1;strokeColor=none;fillColor=none;align=left;verticalAlign=top;whiteSpace=wrap;rounded=0;" parent="1" vertex="1">
                    <mxGeometry x="640" y="70" width="160" height="100" as="geometry"/>
                </mxCell>
                <mxCell id="title" value="Cafe ETL - Medallion Architecture" style="text;html=1;strokeColor=none;fillColor=none;align=center;verticalAlign=middle;whiteSpace=wrap;rounded=0;fontSize=24;fontStyle=1" parent="1" vertex="1">
                    <mxGeometry x="240" width="400" height="40" as="geometry"/>
                </mxCell>
                <mxCell id="5" style="edgeStyle=none;html=1;" edge="1" parent="1" source="2" target="landing">
                    <mxGeometry relative="1" as="geometry"/>
                </mxCell>
                <mxCell id="8" style="edgeStyle=none;html=1;" edge="1" parent="1" source="2">
                    <mxGeometry relative="1" as="geometry">
                        <mxPoint x="-320" y="270" as="targetPoint"/>
                    </mxGeometry>
                </mxCell>
                <mxCell id="2" value="Google Could Function" style="editableCssRules=.*;html=1;shape=image;verticalLabelPosition=bottom;labelBackgroundColor=#ffffff;verticalAlign=top;aspect=fixed;imageAspect=0;image=data:image/svg+xml,PHN2ZyB4bWxucz0iaHR0cDovL3d3dy53My5vcmcvMjAwMC9zdmciIHhtbG5zOnY9Imh0dHBzOi8vdmVjdGEuaW8vbmFubyIgd2lkdGg9IjIwIiBoZWlnaHQ9IjE5Ljk4OTk5OTc3MTExODE2NCIgdmlld0JveD0iMCAwIDIwIDE5Ljk4OTk5OTc3MTExODE2NCI+JiN4YTsJPHN0eWxlIHR5cGU9InRleHQvY3NzIj4mI3hhOwkuc3Qwe2ZpbGw6IzQyODVmNDt9JiN4YTsJLnN0MXtmaWxsOiM2NjlkZjY7fSYjeGE7CS5zdDJ7ZmlsbDojYWVjYmZhO30mI3hhOwk8L3N0eWxlPiYjeGE7CTxwYXRoIGNsYXNzPSJzdDEiIGQ9Ik0zIDMuOTlMMCA2LjQydjcuMTNsMyAyLjQ0eiIvPiYjeGE7CTxwYXRoIGNsYXNzPSJzdDAiIGQ9Ik0zIDMuOTlsLTMgNCAzLTJ6bS0zIDhsMyA0di0yeiIvPiYjeGE7CTxwYXRoIGNsYXNzPSJzdDIiIGQ9Ik0wIDE1Ljk5bDQgNCAyLTItNi02em0uMDEtOEw1Ljk5IDJsLTItMkwwIDMuOTl6Ii8+JiN4YTsJPHBhdGggY2xhc3M9InN0MSIgZD0iTTE3IDE2bDMtMi40MlY2LjQ0TDE3IDR6Ii8+JiN4YTsJPHBhdGggY2xhc3M9InN0MCIgZD0iTTE3IDE2bDMtNC0zIDJ6bTMtOGwtMy00djJ6Ii8+JiN4YTsJPGcgY2xhc3M9InN0MiI+JiN4YTsJCTxwYXRoIGQ9Ik0yMCA0bC00LTQtMiAyIDYgNnptLS4wMSA4bC01Ljk4IDUuOTkgMiAyTDIwIDE2eiIvPiYjeGE7CQk8Y2lyY2xlIGN4PSI2IiBjeT0iOS45OSIgcj0iMSIvPiYjeGE7CQk8Y2lyY2xlIGN4PSIxMCIgY3k9IjkuOTkiIHI9IjEiLz4mI3hhOwkJPGNpcmNsZSBjeD0iMTMuOTkiIGN5PSI5Ljk5IiByPSIxIi8+JiN4YTsJPC9nPiYjeGE7PC9zdmc+;" vertex="1" parent="1">
                    <mxGeometry x="-200" y="235" width="70" height="70" as="geometry"/>
                </mxCell>
                <mxCell id="3" value="Google Storage" style="editableCssRules=.*;html=1;shape=image;verticalLabelPosition=bottom;labelBackgroundColor=#ffffff;verticalAlign=top;aspect=fixed;imageAspect=0;image=data:image/svg+xml,PHN2ZyB4bWxucz0iaHR0cDovL3d3dy53My5vcmcvMjAwMC9zdmciIHhtbG5zOnY9Imh0dHBzOi8vdmVjdGEuaW8vbmFubyIgd2lkdGg9IjIwIiBoZWlnaHQ9IjE2IiB2aWV3Qm94PSIwIDAgMjAgMTYiPiYjeGE7CTxzdHlsZSB0eXBlPSJ0ZXh0L2NzcyI+JiN4YTsJLnN0MHtmaWxsOiM0Mjg1ZjQ7fSYjeGE7CS5zdDF7ZmlsbDojNjY5ZGY2O30mI3hhOwkuc3Qye2ZpbGw6I2FlY2JmYTt9JiN4YTsJLnN0M3tmaWxsOiNmZmY7fSYjeGE7CTwvc3R5bGU+JiN4YTsJPHBhdGggY2xhc3M9InN0MiIgZD0iTTAgMGgyMHY3SDB6Ii8+JiN4YTsJPHBhdGggY2xhc3M9InN0MSIgZD0iTTE4IDBoMnY3aC0yeiIvPiYjeGE7CTxwYXRoIGNsYXNzPSJzdDAiIGQ9Ik0xOCA3bDItN2gtMnoiLz4mI3hhOwk8cGF0aCBjbGFzcz0ic3QxIiBkPSJNMCAwaDJ2N0gweiIvPiYjeGE7CTxnIGNsYXNzPSJzdDMiPiYjeGE7CQk8cGF0aCBkPSJNNCAzaDZ2MUg0eiIvPiYjeGE7CQk8cmVjdCB4PSIxMyIgeT0iMiIgd2lkdGg9IjMiIGhlaWdodD0iMyIgcng9IjEuNSIvPiYjeGE7CTwvZz4mI3hhOwk8cGF0aCBjbGFzcz0ic3QyIiBkPSJNMCA5aDIwdjdIMHoiLz4mI3hhOwk8cGF0aCBjbGFzcz0ic3QxIiBkPSJNMTggOWgydjdoLTJ6Ii8+JiN4YTsJPHBhdGggY2xhc3M9InN0MCIgZD0iTTE4IDE2bDItN2gtMnoiLz4mI3hhOwk8cGF0aCBjbGFzcz0ic3QxIiBkPSJNMCA5aDJ2N0gweiIvPiYjeGE7CTxnIGNsYXNzPSJzdDMiPiYjeGE7CQk8cGF0aCBkPSJNNCAxMmg2djFINHoiLz4mI3hhOwkJPHJlY3QgeD0iMTMiIHk9IjExIiB3aWR0aD0iMyIgaGVpZ2h0PSIzIiByeD0iMS41Ii8+JiN4YTsJPC9nPiYjeGE7PC9zdmc+;" vertex="1" parent="1">
                    <mxGeometry x="82.5" y="240" width="75" height="60" as="geometry"/>
                </mxCell>
                <mxCell id="4" value="&lt;span style=&quot;color: rgb(0, 0, 0); font-family: Helvetica; font-size: 12px; font-style: normal; font-variant-ligatures: normal; font-variant-caps: normal; font-weight: 700; letter-spacing: normal; orphans: 2; text-align: center; text-indent: 0px; text-transform: none; widows: 2; word-spacing: 0px; -webkit-text-stroke-width: 0px; white-space: normal; background-color: rgb(251, 251, 251); text-decoration-thickness: initial; text-decoration-style: initial; text-decoration-color: initial; float: none; display: inline !important;&quot;&gt;Landing Zone&lt;/span&gt;&lt;br style=&quot;forced-color-adjust: none; color: light-dark(var(--text-color), var(--dark-text-color)); scrollbar-color: light-dark(#e2e2e2, #4b4b4b)&lt;br/&gt;&lt;span style=&quot;&gt;&lt;span style=&quot;color: rgb(0, 0, 0); font-family: Helvetica; font-size: 12px; font-style: normal; font-variant-ligatures: normal; font-variant-caps: normal; font-weight: 700; letter-spacing: normal; orphans: 2; text-align: center; text-indent: 0px; text-transform: none; widows: 2; word-spacing: 0px; -webkit-text-stroke-width: 0px; white-space: normal; background-color: rgb(251, 251, 251); text-decoration-thickness: initial; text-decoration-style: initial; text-decoration-color: initial; float: none; display: inline !important;&quot;&gt;(Raw CSV Data)&lt;/span&gt;" style="text;whiteSpace=wrap;html=1;" vertex="1" parent="1">
                    <mxGeometry x="50" y="175" width="120" height="40" as="geometry"/>
                </mxCell>
                <mxCell id="6" value="Café Rewards" style="shape=image;verticalLabelPosition=bottom;labelBackgroundColor=default;verticalAlign=top;aspect=fixed;imageAspect=0;image=https://cafebarberamena.com/wp-content/uploads/2022/04/Rewards-Page-Icons-01.png;" vertex="1" parent="1">
                    <mxGeometry x="-470" y="197.5" width="135.32" height="135" as="geometry"/>
                </mxCell>
                <mxCell id="9" value="&lt;span style=&quot;color: rgb(0, 0, 0); font-family: Helvetica; font-size: 12px; font-style: normal; font-variant-ligatures: normal; font-variant-caps: normal; font-weight: 700; letter-spacing: normal; orphans: 2; text-align: center; text-indent: 0px; text-transform: none; widows: 2; word-spacing: 0px; -webkit-text-stroke-width: 0px; white-space: normal; background-color: rgb(251, 251, 251); text-decoration-thickness: initial; text-decoration-style: initial; text-decoration-color: initial; float: none; display: inline !important;&quot;&gt;Bronze Layer&lt;/span&gt;&lt;br style=&quot;forced-color-adjust: none; color: light-dark(var(--text-color), var(--dark-text-color)); scrollbar-color: light-dark(#e2e2e2, #4b4b4b)&lt;br/&gt;&lt;span style=&quot;&gt;&lt;span style=&quot;color: rgb(0, 0, 0); font-family: Helvetica; font-size: 12px; font-style: normal; font-variant-ligatures: normal; font-variant-caps: normal; font-weight: 700; letter-spacing: normal; orphans: 2; text-align: center; text-indent: 0px; text-transform: none; widows: 2; word-spacing: 0px; -webkit-text-stroke-width: 0px; white-space: normal; background-color: rgb(251, 251, 251); text-decoration-thickness: initial; text-decoration-style: initial; text-decoration-color: initial; float: none; display: inline !important;&quot;&gt;(Raw Data)&lt;/span&gt;" style="text;whiteSpace=wrap;html=1;" vertex="1" parent="1">
                    <mxGeometry x="250" y="175" width="90" height="50" as="geometry"/>
                </mxCell>
                <mxCell id="10" value="Google Storage" style="editableCssRules=.*;html=1;shape=image;verticalLabelPosition=bottom;labelBackgroundColor=#ffffff;verticalAlign=top;aspect=fixed;imageAspect=0;image=data:image/svg+xml,PHN2ZyB4bWxucz0iaHR0cDovL3d3dy53My5vcmcvMjAwMC9zdmciIHhtbG5zOnY9Imh0dHBzOi8vdmVjdGEuaW8vbmFubyIgd2lkdGg9IjIwIiBoZWlnaHQ9IjE2IiB2aWV3Qm94PSIwIDAgMjAgMTYiPiYjeGE7CTxzdHlsZSB0eXBlPSJ0ZXh0L2NzcyI+JiN4YTsJLnN0MHtmaWxsOiM0Mjg1ZjQ7fSYjeGE7CS5zdDF7ZmlsbDojNjY5ZGY2O30mI3hhOwkuc3Qye2ZpbGw6I2FlY2JmYTt9JiN4YTsJLnN0M3tmaWxsOiNmZmY7fSYjeGE7CTwvc3R5bGU+JiN4YTsJPHBhdGggY2xhc3M9InN0MiIgZD0iTTAgMGgyMHY3SDB6Ii8+JiN4YTsJPHBhdGggY2xhc3M9InN0MSIgZD0iTTE4IDBoMnY3aC0yeiIvPiYjeGE7CTxwYXRoIGNsYXNzPSJzdDAiIGQ9Ik0xOCA3bDItN2gtMnoiLz4mI3hhOwk8cGF0aCBjbGFzcz0ic3QxIiBkPSJNMCAwaDJ2N0gweiIvPiYjeGE7CTxnIGNsYXNzPSJzdDMiPiYjeGE7CQk8cGF0aCBkPSJNNCAzaDZ2MUg0eiIvPiYjeGE7CQk8cmVjdCB4PSIxMyIgeT0iMiIgd2lkdGg9IjMiIGhlaWdodD0iMyIgcng9IjEuNSIvPiYjeGE7CTwvZz4mI3hhOwk8cGF0aCBjbGFzcz0ic3QyIiBkPSJNMCA5aDIwdjdIMHoiLz4mI3hhOwk8cGF0aCBjbGFzcz0ic3QxIiBkPSJNMTggOWgydjdoLTJ6Ii8+JiN4YTsJPHBhdGggY2xhc3M9InN0MCIgZD0iTTE4IDE2bDItN2gtMnoiLz4mI3hhOwk8cGF0aCBjbGFzcz0ic3QxIiBkPSJNMCA5aDJ2N0gweiIvPiYjeGE7CTxnIGNsYXNzPSJzdDMiPiYjeGE7CQk8cGF0aCBkPSJNNCAxMmg2djFINHoiLz4mI3hhOwkJPHJlY3QgeD0iMTMiIHk9IjExIiB3aWR0aD0iMyIgaGVpZ2h0PSIzIiByeD0iMS41Ii8+JiN4YTsJPC9nPiYjeGE7PC9zdmc+;" vertex="1" parent="1">
                    <mxGeometry x="282.5" y="235" width="75" height="60" as="geometry"/>
                </mxCell>
                <mxCell id="11" value="Big Query" style="editableCssRules=.*;html=1;shape=image;verticalLabelPosition=bottom;labelBackgroundColor=#ffffff;verticalAlign=top;aspect=fixed;imageAspect=0;image=data:image/svg+xml,PHN2ZyB4bWxucz0iaHR0cDovL3d3dy53My5vcmcvMjAwMC9zdmciIHhtbG5zOnY9Imh0dHBzOi8vdmVjdGEuaW8vbmFubyIgd2lkdGg9IjIwLjAwMTA0NTIyNzA1MDc4IiBoZWlnaHQ9IjIwLjAwMTA0NTIyNzA1MDc4IiBmaWxsLXJ1bGU9ImV2ZW5vZGQiIHZpZXdCb3g9IjAgMCAyMC4wMDEwNDUyMjcwNTA3OCAyMC4wMDEwNDUyMjcwNTA3OCI+JiN4YTsJPHN0eWxlIHR5cGU9InRleHQvY3NzIj4mI3hhOwkuc3Qwe2ZpbGw6I2FlY2JmYTt9JiN4YTsJLnN0MXtmaWxsOiM2NjlkZjY7fSYjeGE7CS5zdDJ7ZmlsbDojNDI4NWY0O30mI3hhOwk8L3N0eWxlPiYjeGE7CTxwYXRoIGNsYXNzPSJzdDAiIGQ9Ik00LjczIDguODN2Mi42M2E0LjkxIDQuOTEgMCAwIDAgMS43MSAxLjc0VjguODN6Ii8+JiN4YTsJPHBhdGggY2xhc3M9InN0MSIgZD0iTTcuODkgNi40MXY3LjUzQTcuNjIgNy42MiAwIDAgMCA5IDE0YTggOCAwIDAgMCAxIDBWNi40MXoiLz4mI3hhOwk8cGF0aCBjbGFzcz0ic3QwIiBkPSJNMTEuNjQgOS44NnYzLjI5YTUgNSAwIDAgMCAxLjctMS44MlY5Ljg2eiIvPiYjeGE7CTxwYXRoIGNsYXNzPSJzdDIiIGQ9Ik0xNS43NCAxNC4zMmwtMS40MiAxLjQyYS40Mi40MiAwIDAgMCAwIC42bDMuNTQgMy41NGEuNDIuNDIgMCAwIDAgLjU5IDBsMS40My0xLjQzYS40Mi40MiAwIDAgMCAwLS41OWwtMy41NC0zLjU0YS40Mi40MiAwIDAgMC0uNiAwIi8+JiN4YTsJPHBhdGggY2xhc3M9InN0MSIgZD0iTTkgMGE5IDkgMCAxIDAgMCAxOEE5IDkgMCAxIDAgOSAwbTAgMTUuNjlhNi42OCA2LjY4IDAgMCAxIC4wMDctMTMuMzYgNi42OCA2LjY4IDAgMCAxIDQuNzI3IDExLjQwM0E2LjY4IDYuNjggMCAwIDEgOSAxNS42OSIvPiYjeGE7PC9zdmc+;" vertex="1" parent="1">
                    <mxGeometry x="485" y="230" width="70" height="70" as="geometry"/>
                </mxCell>
                <mxCell id="12" value="&lt;span style=&quot;color: rgb(0, 0, 0); font-family: Helvetica; font-size: 12px; font-style: normal; font-variant-ligatures: normal; font-variant-caps: normal; font-weight: 700; letter-spacing: normal; orphans: 2; text-align: center; text-indent: 0px; text-transform: none; widows: 2; word-spacing: 0px; -webkit-text-stroke-width: 0px; white-space: normal; background-color: rgb(251, 251, 251); text-decoration-thickness: initial; text-decoration-style: initial; text-decoration-color: initial; float: none; display: inline !important;&quot;&gt;Silver Layer&lt;/span&gt;&lt;br style=&quot;forced-color-adjust: none; color: light-dark(var(--text-color), var(--dark-text-color)); scrollbar-color: light-dark(#e2e2e2, #4b4b4b)&lt;br/&gt;&lt;span style=&quot;&gt;&amp;nbsp;&lt;span style=&quot;color: rgb(0, 0, 0); font-family: Helvetica; font-size: 12px; font-style: normal; font-variant-ligatures: normal; font-variant-caps: normal; font-weight: 700; letter-spacing: normal; orphans: 2; text-align: center; text-indent: 0px; text-transform: none; widows: 2; word-spacing: 0px; -webkit-text-stroke-width: 0px; white-space: normal; background-color: rgb(251, 251, 251); text-decoration-thickness: initial; text-decoration-style: initial; text-decoration-color: initial; float: none; display: inline !important;&quot;&gt;(Cleaned &amp;amp; Validated)&lt;/span&gt;" style="text;whiteSpace=wrap;html=1;" vertex="1" parent="1">
                    <mxGeometry x="450" y="170" width="130" height="40" as="geometry"/>
                </mxCell>
                <mxCell id="13" value="&lt;span style=&quot;color: rgb(0, 0, 0); font-family: Helvetica; font-size: 12px; font-style: normal; font-variant-ligatures: normal; font-variant-caps: normal; font-weight: 700; letter-spacing: normal; orphans: 2; text-align: center; text-indent: 0px; text-transform: none; widows: 2; word-spacing: 0px; -webkit-text-stroke-width: 0px; white-space: normal; background-color: rgb(251, 251, 251); text-decoration-thickness: initial; text-decoration-style: initial; text-decoration-color: initial; float: none; display: inline !important;&quot;&gt;Gold Layer&lt;/span&gt;&lt;br style=&quot;forced-color-adjust: none; color: light-dark(var(--text-color), var(--dark-text-color)); scrollbar-color: light-dark(#e2e2e2, #4b4b4b)&lt;br/&gt;&lt;span style=&quot;&gt;&lt;span style=&quot;color: rgb(0, 0, 0); font-family: Helvetica; font-size: 12px; font-style: normal; font-variant-ligatures: normal; font-variant-caps: normal; font-weight: 700; letter-spacing: normal; orphans: 2; text-align: center; text-indent: 0px; text-transform: none; widows: 2; word-spacing: 0px; -webkit-text-stroke-width: 0px; white-space: normal; background-color: rgb(251, 251, 251); text-decoration-thickness: initial; text-decoration-style: initial; text-decoration-color: initial; float: none; display: inline !important;&quot;&gt;(Business Ready)&lt;/span&gt;" style="text;whiteSpace=wrap;html=1;" vertex="1" parent="1">
                    <mxGeometry x="650" y="175" width="110" height="50" as="geometry"/>
                </mxCell>
                <mxCell id="14" value="Big Query" style="editableCssRules=.*;html=1;shape=image;verticalLabelPosition=bottom;labelBackgroundColor=#ffffff;verticalAlign=top;aspect=fixed;imageAspect=0;image=data:image/svg+xml,PHN2ZyB4bWxucz0iaHR0cDovL3d3dy53My5vcmcvMjAwMC9zdmciIHhtbG5zOnY9Imh0dHBzOi8vdmVjdGEuaW8vbmFubyIgd2lkdGg9IjIwLjAwMTA0NTIyNzA1MDc4IiBoZWlnaHQ9IjIwLjAwMTA0NTIyNzA1MDc4IiBmaWxsLXJ1bGU9ImV2ZW5vZGQiIHZpZXdCb3g9IjAgMCAyMC4wMDEwNDUyMjcwNTA3OCAyMC4wMDEwNDUyMjcwNTA3OCI+JiN4YTsJPHN0eWxlIHR5cGU9InRleHQvY3NzIj4mI3hhOwkuc3Qwe2ZpbGw6I2FlY2JmYTt9JiN4YTsJLnN0MXtmaWxsOiM2NjlkZjY7fSYjeGE7CS5zdDJ7ZmlsbDojNDI4NWY0O30mI3hhOwk8L3N0eWxlPiYjeGE7CTxwYXRoIGNsYXNzPSJzdDAiIGQ9Ik00LjczIDguODN2Mi42M2E0LjkxIDQuOTEgMCAwIDAgMS43MSAxLjc0VjguODN6Ii8+JiN4YTsJPHBhdGggY2xhc3M9InN0MSIgZD0iTTcuODkgNi40MXY3LjUzQTcuNjIgNy42MiAwIDAgMCA5IDE0YTggOCAwIDAgMCAxIDBWNi40MXoiLz4mI3hhOwk8cGF0aCBjbGFzcz0ic3QwIiBkPSJNMTEuNjQgOS44NnYzLjI5YTUgNSAwIDAgMCAxLjctMS44MlY5Ljg2eiIvPiYjeGE7CTxwYXRoIGNsYXNzPSJzdDIiIGQ9Ik0xNS43NCAxNC4zMmwtMS40MiAxLjQyYS40Mi40MiAwIDAgMCAwIC42bDMuNTQgMy41NGEuNDIuNDIgMCAwIDAgLjU5IDBsMS40My0xLjQzYS40Mi40MiAwIDAgMCAwLS41OWwtMy41NC0zLjU0YS40Mi40MiAwIDAgMC0uNiAwIi8+JiN4YTsJPHBhdGggY2xhc3M9InN0MSIgZD0iTTkgMGE5IDkgMCAxIDAgMCAxOEE5IDkgMCAxIDAgOSAwbTAgMTUuNjlhNi42OCA2LjY4IDAgMCAxIC4wMDctMTMuMzYgNi42OCA2LjY4IDAgMCAxIDQuNzI3IDExLjQwM0E2LjY4IDYuNjggMCAwIDEgOSAxNS42OSIvPiYjeGE7PC9zdmc+;" vertex="1" parent="1">
                    <mxGeometry x="685" y="235" width="70" height="70" as="geometry"/>
                </mxCell>
                <mxCell id="30" style="edgeStyle=none;html=1;entryX=0.5;entryY=1;entryDx=0;entryDy=0;" edge="1" parent="1" source="15" target="bronze">
                    <mxGeometry relative="1" as="geometry">
                        <Array as="points">
                            <mxPoint x="320" y="470"/>
                        </Array>
                    </mxGeometry>
                </mxCell>
                <mxCell id="15" value="Data Proc&lt;div&gt;&lt;br&gt;&lt;/div&gt;" style="editableCssRules=.*;html=1;shape=image;verticalLabelPosition=bottom;labelBackgroundColor=#ffffff;verticalAlign=top;aspect=fixed;imageAspect=0;image=data:image/svg+xml,PHN2ZyB4bWxucz0iaHR0cDovL3d3dy53My5vcmcvMjAwMC9zdmciIHhtbG5zOnY9Imh0dHBzOi8vdmVjdGEuaW8vbmFubyIgd2lkdGg9IjE1Ljk2NTYwODU5NjgwMTc1OCIgaGVpZ2h0PSIxNC43ODkzMTUyMjM2OTM4NDgiIHZpZXdCb3g9IjAuMDQxMjc5MTMzNDA5MjYxNzAzIDAuMDAwMTYyNjU3NDY2NzE3MDY0MzggMTUuOTY1NjA4NTk2ODAxNzU4IDE0Ljc4OTMxNTIyMzY5Mzg0OCI+JiN4YTsJPHN0eWxlIHR5cGU9InRleHQvY3NzIj4mI3hhOwkuc3Qwe2ZpbGw6IzQyODVmNDt9JiN4YTsJPC9zdHlsZT4mI3hhOwk8cGF0aCBjbGFzcz0ic3QwIiBkPSJNMTUuNTgxIDkuODMyYTMuMTIgMy4xMiAwIDAgMC0xLjE0LTEuMTNoLS4xMmwtNS0yLjg4YTMuMTIgMy4xMiAwIDEgMC00LjY4LTIuNjZoMHY1LjhhMy4wOSAzLjA5IDAgMCAwLTMuMDYgMGgwYTMuMTMxIDMuMTMxIDAgMCAwIDMuMSA1LjQ0aDAgMGw1LjA4LTIuOTRhMy4wOSAzLjA5IDAgMCAwIC40MSAxLjUyIDMuMTMgMy4xMyAwIDEgMCA1LjQxLTMuMTV6bS05LjQgMS4zMnYtNS4zNmEzLjExIDMuMTEgMCAwIDAgLjUzLjI1bDQuNjEgMi42N2gwYTMuMTMgMy4xMyAwIDAgMC0uNTEuMzhsLTQuNTggMi42MmEzLjA4IDMuMDggMCAwIDAtLjA1LS41NnptLjgyLTkuMzZhMS41MiAxLjUyIDAgMSAxLS43NyAxLjMyIDEuNTIgMS41MiAwIDAgMSAuNzctMS4zMnptLTMuMSAxMS4yMWExLjUyIDEuNTIgMCAxIDEgLjU3LTIuMDcgMS41MiAxLjUyIDAgMCAxLS41NyAyLjA3em05Ljc2LS4zM2ExLjUyIDEuNTIgMCAwIDEtMi4wOS0uNWgwYTEuNTIxIDEuNTIxIDAgMSAxIDIuNjMtMS41M2wuMDcuMTJhMS41MiAxLjUyIDAgMCAxLS42MiAxLjkxeiIvPiYjeGE7PC9zdmc+;" vertex="1" parent="1">
                    <mxGeometry x="190" y="440" width="64" height="60" as="geometry"/>
                </mxCell>
                <mxCell id="31" style="edgeStyle=orthogonalEdgeStyle;html=1;entryX=-0.031;entryY=0.617;entryDx=0;entryDy=0;entryPerimeter=0;" edge="1" parent="1" target="33">
                    <mxGeometry relative="1" as="geometry">
                        <mxPoint x="520" y="500" as="targetPoint"/>
                        <mxPoint x="520" y="380" as="sourcePoint"/>
                        <Array as="points">
                            <mxPoint x="520" y="477"/>
                        </Array>
                    </mxGeometry>
                </mxCell>
                <mxCell id="32" style="edgeStyle=none;html=1;entryX=0.5;entryY=1;entryDx=0;entryDy=0;" edge="1" parent="1" source="33">
                    <mxGeometry relative="1" as="geometry">
                        <mxPoint x="720" y="380" as="targetPoint"/>
                        <Array as="points">
                            <mxPoint x="720" y="470"/>
                        </Array>
                    </mxGeometry>
                </mxCell>
                <mxCell id="33" value="Data Proc&lt;div&gt;&lt;br&gt;&lt;/div&gt;" style="editableCssRules=.*;html=1;shape=image;verticalLabelPosition=bottom;labelBackgroundColor=#ffffff;verticalAlign=top;aspect=fixed;imageAspect=0;image=data:image/svg+xml,PHN2ZyB4bWxucz0iaHR0cDovL3d3dy53My5vcmcvMjAwMC9zdmciIHhtbG5zOnY9Imh0dHBzOi8vdmVjdGEuaW8vbmFubyIgd2lkdGg9IjE1Ljk2NTYwODU5NjgwMTc1OCIgaGVpZ2h0PSIxNC43ODkzMTUyMjM2OTM4NDgiIHZpZXdCb3g9IjAuMDQxMjc5MTMzNDA5MjYxNzAzIDAuMDAwMTYyNjU3NDY2NzE3MDY0MzggMTUuOTY1NjA4NTk2ODAxNzU4IDE0Ljc4OTMxNTIyMzY5Mzg0OCI+JiN4YTsJPHN0eWxlIHR5cGU9InRleHQvY3NzIj4mI3hhOwkuc3Qwe2ZpbGw6IzQyODVmNDt9JiN4YTsJPC9zdHlsZT4mI3hhOwk8cGF0aCBjbGFzcz0ic3QwIiBkPSJNMTUuNTgxIDkuODMyYTMuMTIgMy4xMiAwIDAgMC0xLjE0LTEuMTNoLS4xMmwtNS0yLjg4YTMuMTIgMy4xMiAwIDEgMC00LjY4LTIuNjZoMHY1LjhhMy4wOSAzLjA5IDAgMCAwLTMuMDYgMGgwYTMuMTMxIDMuMTMxIDAgMCAwIDMuMSA1LjQ0aDAgMGw1LjA4LTIuOTRhMy4wOSAzLjA5IDAgMCAwIC40MSAxLjUyIDMuMTMgMy4xMyAwIDEgMCA1LjQxLTMuMTV6bS05LjQgMS4zMnYtNS4zNmEzLjExIDMuMTEgMCAwIDAgLjUzLjI1bDQuNjEgMi42N2gwYTMuMTMgMy4xMyAwIDAgMC0uNTEuMzhsLTQuNTggMi42MmEzLjA4IDMuMDggMCAwIDAtLjA1LS41NnptLjgyLTkuMzZhMS41MiAxLjUyIDAgMSAxLS43NyAxLjMyIDEuNTIgMS41MiAwIDAgMSAuNzctMS4zMnptLTMuMSAxMS4yMWExLjUyIDEuNTIgMCAxIDEgLjU3LTIuMDcgMS41MiAxLjUyIDAgMCAxLS41NyAyLjA3em05Ljc2LS4zM2ExLjUyIDEuNTIgMCAwIDEtMi4wOS0uNWgwYTEuNTIxIDEuNTIxIDAgMSAxIDIuNjMtMS41M2wuMDcuMTJhMS41MiAxLjUyIDAgMCAxLS42MiAxLjkxeiIvPiYjeGE7PC9zdmc+;" vertex="1" parent="1">
                    <mxGeometry x="590" y="440" width="64" height="60" as="geometry"/>
                </mxCell>
                <mxCell id="34" style="edgeStyle=orthogonalEdgeStyle;html=1;entryX=-0.031;entryY=0.617;entryDx=0;entryDy=0;entryPerimeter=0;" edge="1" parent="1" target="36">
                    <mxGeometry relative="1" as="geometry">
                        <mxPoint x="320" y="500" as="targetPoint"/>
                        <mxPoint x="320" y="380" as="sourcePoint"/>
                        <Array as="points">
                            <mxPoint x="320" y="477"/>
                        </Array>
                    </mxGeometry>
                </mxCell>
                <mxCell id="35" style="edgeStyle=none;html=1;entryX=0.5;entryY=1;entryDx=0;entryDy=0;" edge="1" parent="1" source="36">
                    <mxGeometry relative="1" as="geometry">
                        <mxPoint x="520" y="380" as="targetPoint"/>
                        <Array as="points">
                            <mxPoint x="520" y="470"/>
                        </Array>
                    </mxGeometry>
                </mxCell>
                <mxCell id="36" value="Data Proc&lt;div&gt;&lt;br&gt;&lt;/div&gt;" style="editableCssRules=.*;html=1;shape=image;verticalLabelPosition=bottom;labelBackgroundColor=#ffffff;verticalAlign=top;aspect=fixed;imageAspect=0;image=data:image/svg+xml,PHN2ZyB4bWxucz0iaHR0cDovL3d3dy53My5vcmcvMjAwMC9zdmciIHhtbG5zOnY9Imh0dHBzOi8vdmVjdGEuaW8vbmFubyIgd2lkdGg9IjE1Ljk2NTYwODU5NjgwMTc1OCIgaGVpZ2h0PSIxNC43ODkzMTUyMjM2OTM4NDgiIHZpZXdCb3g9IjAuMDQxMjc5MTMzNDA5MjYxNzAzIDAuMDAwMTYyNjU3NDY2NzE3MDY0MzggMTUuOTY1NjA4NTk2ODAxNzU4IDE0Ljc4OTMxNTIyMzY5Mzg0OCI+JiN4YTsJPHN0eWxlIHR5cGU9InRleHQvY3NzIj4mI3hhOwkuc3Qwe2ZpbGw6IzQyODVmNDt9JiN4YTsJPC9zdHlsZT4mI3hhOwk8cGF0aCBjbGFzcz0ic3QwIiBkPSJNMTUuNTgxIDkuODMyYTMuMTIgMy4xMiAwIDAgMC0xLjE0LTEuMTNoLS4xMmwtNS0yLjg4YTMuMTIgMy4xMiAwIDEgMC00LjY4LTIuNjZoMHY1LjhhMy4wOSAzLjA5IDAgMCAwLTMuMDYgMGgwYTMuMTMxIDMuMTMxIDAgMCAwIDMuMSA1LjQ0aDAgMGw1LjA4LTIuOTRhMy4wOSAzLjA5IDAgMCAwIC40MSAxLjUyIDMuMTMgMy4xMyAwIDEgMCA1LjQxLTMuMTV6bS05LjQgMS4zMnYtNS4zNmEzLjExIDMuMTEgMCAwIDAgLjUzLjI1bDQuNjEgMi42N2gwYTMuMTMgMy4xMyAwIDAgMC0uNTEuMzhsLTQuNTggMi42MmEzLjA4IDMuMDggMCAwIDAtLjA1LS41NnptLjgyLTkuMzZhMS41MiAxLjUyIDAgMSAxLS43NyAxLjMyIDEuNTIgMS41MiAwIDAgMSAuNzctMS4zMnptLTMuMSAxMS4yMWExLjUyIDEuNTIgMCAxIDEgLjU3LTIuMDcgMS41MiAxLjUyIDAgMCAxLS41NyAyLjA3em05Ljc2LS4zM2ExLjUyIDEuNTIgMCAwIDEtMi4wOS0uNWgwYTEuNTIxIDEuNTIxIDAgMSAxIDIuNjMtMS41M2wuMDcuMTJhMS41MiAxLjUyIDAgMCAxLS42MiAxLjkxeiIvPiYjeGE7PC9zdmc+;" vertex="1" parent="1">
                    <mxGeometry x="390" y="440" width="64" height="60" as="geometry"/>
                </mxCell>
            </root>
        </mxGraphModel>
    </diagram>
</mxfile>